

<svg version="1.0" xmlns="http://www.w3.org/2000/svg"
  viewBox="0 0 1280.000000 896.000000"
 preserveAspectRatio="xMidYMid meet" width="512" height="600">
<g transform="translate(0.000000,896.000000) scale(0.100000,-0.100000)"
fill="#323232" stroke="none">
<path d="M8322 8845 c-71 -38 -143 -88 -347 -246 -526 -405 -942 -726 -1500
-1160 l-640 -497 -440 -127 c-1127 -325 -1485 -442 -1985 -648 -685 -282
-1292 -653 -1850 -1131 -544 -466 -1004 -1051 -1176 -1497 -60 -154 -75 -239
-74 -411 0 -84 0 -186 0 -226 0 -129 41 -283 121 -447 120 -247 349 -398 700
-460 123 -22 354 -30 493 -16 320 31 552 113 987 349 381 205 585 295 759 334
87 19 134 23 270 23 146 -1 172 -3 229 -24 175 -62 265 -175 294 -369 13 -88
0 -183 -38 -269 -36 -80 -125 -193 -199 -252 -133 -106 -291 -291 -323 -378
-101 -271 -93 -504 24 -697 82 -134 270 -296 344 -296 23 0 41 -6 46 -15 28
-48 536 -115 883 -115 529 0 1307 132 2089 354 338 97 604 184 1106 365 767
277 1522 659 2319 1173 317 205 519 358 800 608 209 185 625 599 648 645 11
21 53 71 92 110 176 174 352 519 476 929 89 296 95 336 95 621 0 269 -12 376
-62 590 -100 427 -325 816 -616 1066 -155 133 -368 263 -536 326 -36 13 -76
32 -90 42 -48 34 -186 99 -276 129 -49 17 -120 43 -157 56 -99 37 -372 102
-548 131 -476 76 -1102 92 -1610 40 -532 -55 -1255 -179 -1990 -340 -218 -48
-412 -86 -417 -81 -2 1 -37 -27 1217 992 701 570 930 761 948 792 41 73 28 78
-66 27z m-2305 -6649 c116 -31 209 -97 260 -183 88 -151 -44 -368 -302 -494
-262 -128 -543 -139 -720 -28 -93 58 -105 75 -105 144 0 162 132 363 319 484
81 52 148 73 306 95 50 7 187 -3 242 -18z"/>
</g>
</svg>
