<svg width="40" height="40" viewBox="0 0 40 40" fill="none" xmlns="http://www.w3.org/2000/svg">
<path d="M30.1949 15.9055L29.3394 7.77497C29.2394 6.82775 28.4422 6.11108 27.4894 6.11108H12.4838C11.5338 6.11108 10.7338 6.83053 10.6338 7.77497L9.78105 15.9055C9.18661 21.5555 13.2783 26.525 18.7727 27.1694V30.4083L14.8699 31.2861C14.2533 31.425 13.8172 31.9722 13.8172 32.6028C13.8172 33.35 14.4227 33.9527 15.1672 33.9527H24.8088C25.5561 33.9527 26.1588 33.3472 26.1588 32.6028C26.1588 31.9722 25.7199 31.425 25.1061 31.2861L21.2033 30.4083V27.1694C26.6977 26.5222 30.7894 21.5555 30.1949 15.9055Z" fill="#606060"/>
</svg>
