<svg width="22" height="28" viewBox="0 0 22 28" fill="none" xmlns="http://www.w3.org/2000/svg">
<path d="M21.1949 9.90553L20.3394 1.77497C20.2394 0.827751 19.4422 0.111084 18.4894 0.111084H3.48383C2.53383 0.111084 1.73383 0.830528 1.63383 1.77497L0.781055 9.90553C0.18661 15.5555 4.27828 20.525 9.77272 21.1694V24.4083L5.86994 25.2861C5.25328 25.425 4.81717 25.9722 4.81717 26.6028C4.81717 27.35 5.42272 27.9527 6.16717 27.9527H15.8088C16.5561 27.9527 17.1588 27.3472 17.1588 26.6028C17.1588 25.9722 16.7199 25.425 16.1061 25.2861L12.2033 24.4083V21.1694C17.6977 20.5222 21.7894 15.5555 21.1949 9.90553Z" fill="#606060"/>
</svg>
