<svg width="40" height="40" viewBox="0 0 40 40" fill="none" xmlns="http://www.w3.org/2000/svg">
<path d="M28.0691 30.55H7.04967C6.37745 30.55 5.83301 31.0945 5.83301 31.7667C5.83301 32.4389 6.37745 32.9834 7.04967 32.9834H28.0719C28.7441 32.9834 29.2886 32.4389 29.2886 31.7667C29.2886 31.0945 28.7441 30.55 28.0719 30.55H28.0691Z" fill="#606060"/>
<path d="M28.8607 9.15272H27.7968L27.8107 8.62772C27.8302 7.85828 27.2135 7.22217 26.4413 7.22217H8.12185C7.34962 7.22217 6.73296 7.85828 6.7524 8.62772L7.00796 18.3472C7.15518 23.9166 11.7107 28.3555 17.283 28.3555C22.4468 28.3555 26.7357 24.5416 27.4524 19.5499H28.8635C31.7357 19.5499 34.0635 17.2222 34.0635 14.3499C34.0635 11.4777 31.7357 9.14995 28.8635 9.14995L28.8607 9.15272ZM28.8607 17.0333H27.5885L27.7302 11.6722H28.8607C30.3385 11.6722 31.5413 12.8749 31.5413 14.3527C31.5413 15.8305 30.3385 17.0333 28.8607 17.0333Z" fill="#606060"/>
</svg>
