<svg width="45" height="45" viewBox="0 0 45 45" fill="none" xmlns="http://www.w3.org/2000/svg">
<circle cx="22.0823" cy="22.0823" r="22.0823" fill="#6E3BFF"/>
<path d="M30.4084 18.6224L29.7025 11.9147C29.62 11.1332 28.9623 10.542 28.1763 10.542H15.7967C15.0129 10.542 14.3529 11.1355 14.2704 11.9147L13.5669 18.6224C13.0765 23.2837 16.4521 27.3834 20.985 27.9151V30.5872L17.7652 31.3114C17.2565 31.4259 16.8967 31.8774 16.8967 32.3976C16.8967 33.0141 17.3963 33.5114 18.0104 33.5114H25.9648C26.5813 33.5114 27.0786 33.0118 27.0786 32.3976C27.0786 31.8774 26.7165 31.4259 26.21 31.3114L22.9902 30.5872V27.9151C27.5232 27.3812 30.8988 23.2837 30.4084 18.6224Z" fill="white"/>
</svg>
