<svg width="130" height="149" viewBox="0 0 130 149" fill="none" xmlns="http://www.w3.org/2000/svg">
<g filter="url(#filter0_d_275_9383)">
<path d="M114.765 55.8158H114.745C112.463 32.6649 93.8874 13.8673 70.6876 11.3147C40.5218 7.99052 15 31.4382 15 60.8417C15 61.7123 15 62.5631 15.0595 63.414C15.6549 75.0092 20.8347 85.9316 28.912 94.3015L61.6974 128.355C63.5034 130.215 66.5001 130.215 68.2862 128.355L101.111 94.2817C108.95 86.1493 114.11 75.6226 114.884 64.344C115.063 61.5738 115.043 58.7245 114.765 55.8356V55.8158Z" fill="#323232" fill-opacity="0.8" shape-rendering="crispEdges"/>
<path d="M114.248 55.8648L114.292 56.3158H114.307C114.544 59.0275 114.554 61.7037 114.385 64.3108C113.62 75.458 108.519 85.8768 100.751 93.9347L100.751 93.9349L67.9261 128.008L67.9256 128.009C66.3376 129.662 63.6677 129.666 62.0569 128.008C62.0567 128.007 62.0564 128.007 62.0561 128.007L29.2722 93.9547L29.2717 93.9543C21.2693 85.662 16.1474 74.8507 15.5589 63.3883L15.559 63.3883L15.5583 63.3791C15.5002 62.5486 15.5 61.7153 15.5 60.8417C15.5 31.7345 40.7646 8.5203 70.6328 11.8117L70.6329 11.8117C93.5981 14.3385 111.989 32.9496 114.248 55.8648Z" stroke="#323232" shape-rendering="crispEdges"/>
</g>
<path d="M82.5545 52.4515L81.0859 38.5017C80.9073 36.8791 79.5379 35.6523 77.9106 35.6523H52.091C50.4637 35.6523 49.0745 36.8791 48.9157 38.5017L47.4471 52.4515C46.4151 62.1472 53.4604 70.6754 62.9071 71.7637V77.3238L56.1991 78.8276C55.1473 79.0651 54.3932 79.9951 54.3932 81.0834C54.3932 82.3695 55.4251 83.3984 56.7151 83.3984H73.3063C74.5963 83.3984 75.6283 82.3695 75.6283 81.0834C75.6283 79.9951 74.8741 79.0651 73.8223 78.8276L67.1144 77.3238V71.7637C76.561 70.6556 83.6063 62.1274 82.5743 52.4515H82.5545Z" fill="white"/>
<defs>
<filter id="filter0_d_275_9383" x="0" y="0" width="130" height="148.75" filterUnits="userSpaceOnUse" color-interpolation-filters="sRGB">
<feFlood flood-opacity="0" result="BackgroundImageFix"/>
<feColorMatrix in="SourceAlpha" type="matrix" values="0 0 0 0 0 0 0 0 0 0 0 0 0 0 0 0 0 0 127 0" result="hardAlpha"/>
<feOffset dy="4"/>
<feGaussianBlur stdDeviation="7.5"/>
<feComposite in2="hardAlpha" operator="out"/>
<feColorMatrix type="matrix" values="0 0 0 0 0 0 0 0 0 0 0 0 0 0 0 0 0 0 0.03 0"/>
<feBlend mode="normal" in2="BackgroundImageFix" result="effect1_dropShadow_275_9383"/>
<feBlend mode="normal" in="SourceGraphic" in2="effect1_dropShadow_275_9383" result="shape"/>
</filter>
</defs>
</svg>
