<svg width="24" height="25" viewBox="0 0 24 25" fill="none" xmlns="http://www.w3.org/2000/svg">
<path d="M18.1168 10.0437L17.6034 5.16533C17.5434 4.59699 17.0651 4.16699 16.4934 4.16699H7.4901C6.9201 4.16699 6.4401 4.59866 6.3801 5.16533L5.86844 10.0437C5.51177 13.4337 7.96677 16.4153 11.2634 16.802V18.7453L8.92177 19.272C8.55177 19.3553 8.2901 19.6837 8.2901 20.062C8.2901 20.5103 8.65344 20.872 9.1001 20.872H14.8851C15.3334 20.872 15.6951 20.5087 15.6951 20.062C15.6951 19.6837 15.4318 19.3553 15.0634 19.272L12.7218 18.7453V16.802C16.0184 16.4137 18.4734 13.4337 18.1168 10.0437Z" fill="#606060"/>
</svg>
