<svg width="24" height="25" viewBox="0 0 24 25" fill="none" xmlns="http://www.w3.org/2000/svg">
<path d="M17.5917 18.8301H4.98C4.57667 18.8301 4.25 19.1567 4.25 19.5601C4.25 19.9634 4.57667 20.2901 4.98 20.2901H17.5933C17.9967 20.2901 18.3233 19.9634 18.3233 19.5601C18.3233 19.1567 17.9967 18.8301 17.5933 18.8301H17.5917Z" fill="#606060"/>
<path d="M18.067 5.99134H17.4287L17.437 5.67634C17.4487 5.21467 17.0787 4.83301 16.6154 4.83301H5.62369C5.16036 4.83301 4.79036 5.21467 4.80203 5.67634L4.95536 11.508C5.04369 14.8497 7.77703 17.513 11.1204 17.513C14.2187 17.513 16.792 15.2247 17.222 12.2297H18.0687C19.792 12.2297 21.1887 10.833 21.1887 9.10967C21.1887 7.38634 19.792 5.98967 18.0687 5.98967L18.067 5.99134ZM18.067 10.7197H17.3037L17.3887 7.50301H18.067C18.9537 7.50301 19.6754 8.22467 19.6754 9.11134C19.6754 9.99801 18.9537 10.7197 18.067 10.7197Z" fill="#606060"/>
</svg>
