<svg width="28" height="29" viewBox="0 0 28 29" fill="none" xmlns="http://www.w3.org/2000/svg">
<g clip-path="url(#clip0_232_7531)">
<path d="M22.3457 13.0009L21.3307 7.72562C21.0526 6.07284 19.9832 4.46479 18.4665 3.74923C17.6713 3.37395 16.7574 3.95145 16.7535 4.83034L16.6543 23.674C16.6524 24.1776 16.8585 24.6617 17.226 25.0059L17.2726 25.0506C17.9707 25.704 19.0557 25.704 19.7518 25.0506C20.1465 24.6792 20.3565 24.1523 20.3215 23.6098L19.8879 16.9462C19.8568 16.4717 20.1601 16.0381 20.6171 15.904C21.8654 15.5384 22.6218 14.2706 22.3457 12.997V13.0009Z" fill="#606060"/>
<path d="M13.2279 3.61133C12.7554 3.61133 12.3724 3.99438 12.3724 4.46688V9.38049C12.3724 9.85883 11.9854 10.2458 11.5071 10.2458C11.0288 10.2458 10.6418 9.85883 10.6418 9.38049V4.46688C10.6418 3.99438 10.2588 3.61133 9.78628 3.61133H9.76295C9.29045 3.61133 8.90739 3.99438 8.90739 4.46688V9.38049C8.90739 9.85883 8.52045 10.2458 8.04211 10.2458C7.56378 10.2458 7.17684 9.85883 7.17684 9.38049V4.46688C7.17684 3.99438 6.79378 3.61133 6.32128 3.61133H6.29795C5.82739 3.61133 5.44434 3.99438 5.44434 4.46688V10.8933C5.44434 12.7852 6.33684 14.5663 7.8535 15.698L8.00128 15.8088C8.27739 16.0149 8.42906 16.3455 8.40767 16.6897L7.96045 23.5555C7.92739 24.0669 8.08295 24.5822 8.42906 24.9594C9.15045 25.743 10.3793 25.743 11.1007 24.9594C11.4468 24.5822 11.6024 24.0669 11.5693 23.5555L11.1221 16.6897C11.0988 16.3455 11.2524 16.0149 11.5285 15.8088L11.6763 15.698C13.1929 14.5663 14.0854 12.7852 14.0854 10.8933V4.46688C14.0854 3.99438 13.7024 3.61133 13.2299 3.61133H13.2279Z" fill="#606060"/>
</g>
<defs>
<clipPath id="clip0_232_7531">
<rect width="28" height="28" fill="white" transform="translate(0 0.5)"/>
</clipPath>
</defs>
</svg>
