<svg width="45" height="45" viewBox="0 0 45 45" fill="none" xmlns="http://www.w3.org/2000/svg">
<circle cx="22.0823" cy="22.0823" r="22.0823" fill="#6E3BFF"/>
<g clip-path="url(#clip0_521_3902)">
<g clip-path="url(#clip1_521_3902)">
<path d="M31.9574 20.3088L30.7567 14.0683C30.4278 12.1131 29.1626 10.2108 27.3684 9.36428C26.4277 8.92034 25.3465 9.60351 25.3419 10.6432L25.2246 32.9348C25.2223 33.5306 25.4662 34.1034 25.9009 34.5105L25.9561 34.5634C26.7819 35.3363 28.0654 35.3363 28.8889 34.5634C29.3559 34.1241 29.6043 33.5007 29.5629 32.8589L29.0499 24.976C29.0131 24.4148 29.372 23.9018 29.9125 23.7431C31.3893 23.3106 32.2841 21.8109 31.9574 20.3042V20.3088Z" fill="white"/>
<path d="M21.1708 9.20117C20.6118 9.20117 20.1586 9.65432 20.1586 10.2133V16.026C20.1586 16.5918 19.7009 17.0496 19.135 17.0496C18.5692 17.0496 18.1114 16.5918 18.1114 16.026V10.2133C18.1114 9.65432 17.6583 9.20117 17.0993 9.20117H17.0717C16.5128 9.20117 16.0596 9.65432 16.0596 10.2133V16.026C16.0596 16.5918 15.6019 17.0496 15.036 17.0496C14.4702 17.0496 14.0124 16.5918 14.0124 16.026V10.2133C14.0124 9.65432 13.5593 9.20117 13.0003 9.20117H12.9727C12.416 9.20117 11.9629 9.65432 11.9629 10.2133V17.8156C11.9629 20.0537 13.0187 22.1607 14.8129 23.4995L14.9877 23.6306C15.3143 23.8744 15.4938 24.2654 15.4685 24.6726L14.9394 32.7947C14.9003 33.3997 15.0843 34.0093 15.4938 34.4555C16.3471 35.3825 17.8009 35.3825 18.6543 34.4555C19.0637 34.0093 19.2478 33.3997 19.2086 32.7947L18.6796 24.6726C18.652 24.2654 18.8337 23.8744 19.1603 23.6306L19.3352 23.4995C21.1293 22.1607 22.1852 20.0537 22.1852 17.8156V10.2133C22.1852 9.65432 21.732 9.20117 21.1731 9.20117H21.1708Z" fill="white"/>
</g>
</g>
<defs>
<clipPath id="clip0_521_3902">
<rect width="33.1235" height="33.1235" fill="white" transform="translate(5.52051 5.52051)"/>
</clipPath>
<clipPath id="clip1_521_3902">
<rect width="33.1235" height="33.1235" fill="white" transform="translate(5.52051 5.52051)"/>
</clipPath>
</defs>
</svg>
