<svg width="45" height="45" viewBox="0 0 45 45" fill="none" xmlns="http://www.w3.org/2000/svg">
<circle cx="22.0823" cy="22.0823" r="22.0823" fill="#6E3BFF"/>
<path d="M30.1468 30.8184H12.7409C12.1842 30.8184 11.7334 31.2692 11.7334 31.8259C11.7334 32.3825 12.1842 32.8334 12.7409 32.8334H30.1491C30.7058 32.8334 31.1566 32.3825 31.1566 31.8259C31.1566 31.2692 30.7058 30.8184 30.1491 30.8184H30.1468Z" fill="white"/>
<path d="M30.8031 13.0996H29.9221L29.9336 12.6649C29.9497 12.0277 29.4391 11.501 28.7996 11.501H13.6295C12.99 11.501 12.4794 12.0277 12.4955 12.6649L12.7071 20.7134C12.829 25.3254 16.6014 29.0012 21.2157 29.0012C25.4918 29.0012 29.0434 25.843 29.6369 21.7094H30.8054C33.1838 21.7094 35.1115 19.7818 35.1115 17.4034C35.1115 15.0249 33.1838 13.0973 30.8054 13.0973L30.8031 13.0996ZM30.8031 19.6254H29.7496L29.8669 15.186H30.8031C32.0268 15.186 33.0228 16.182 33.0228 17.4057C33.0228 18.6294 32.0268 19.6254 30.8031 19.6254Z" fill="white"/>
</svg>
