<svg width="32" height="32" viewBox="0 0 32 32" fill="none" xmlns="http://www.w3.org/2000/svg">
<path d="M23.4549 24.4399H6.63935C6.10157 24.4399 5.66602 24.8755 5.66602 25.4133C5.66602 25.9511 6.10157 26.3866 6.63935 26.3866H23.4571C23.9949 26.3866 24.4305 25.9511 24.4305 25.4133C24.4305 24.8755 23.9949 24.4399 23.4571 24.4399H23.4549Z" fill="#606060"/>
<path d="M24.0894 7.32228H23.2383L23.2494 6.90228C23.2649 6.28672 22.7716 5.77783 22.1538 5.77783H7.49826C6.88048 5.77783 6.38715 6.28672 6.4027 6.90228L6.60715 14.6778C6.72492 19.1334 10.3694 22.6845 14.8271 22.6845C18.9583 22.6845 22.3894 19.6334 22.9627 15.6401H24.0916C26.3894 15.6401 28.2516 13.7778 28.2516 11.4801C28.2516 9.18228 26.3894 7.32005 24.0916 7.32005L24.0894 7.32228ZM24.0894 13.6267H23.0716L23.1849 9.33783H24.0894C25.2716 9.33783 26.2338 10.3001 26.2338 11.4823C26.2338 12.6645 25.2716 13.6267 24.0894 13.6267Z" fill="#606060"/>
</svg>
