<svg width="32" height="32" viewBox="0 0 32 32" fill="none" xmlns="http://www.w3.org/2000/svg">
<path d="M24.1554 12.7242L23.4709 6.21978C23.3909 5.46201 22.7531 4.88867 21.9909 4.88867H9.98648C9.22648 4.88867 8.58648 5.46423 8.50648 6.21978L7.82426 12.7242C7.3487 17.2442 10.622 21.2198 15.0176 21.7353V24.3265L11.8954 25.0287C11.402 25.1398 11.0531 25.5776 11.0531 26.082C11.0531 26.6798 11.5376 27.162 12.1331 27.162H19.8465C20.4443 27.162 20.9265 26.6776 20.9265 26.082C20.9265 25.5776 20.5754 25.1398 20.0843 25.0287L16.962 24.3265V21.7353C21.3576 21.2176 24.6309 17.2442 24.1554 12.7242Z" fill="#6E3BFF"/>
</svg>
