<svg width="32" height="32" viewBox="0 0 32 32" fill="none" xmlns="http://www.w3.org/2000/svg">
<g clip-path="url(#clip0_282_907)">
<path d="M25.5386 14.2869L24.3786 8.25806C24.0609 6.36917 22.8386 4.53139 21.1053 3.71362C20.1964 3.28473 19.152 3.94473 19.1475 4.94917L19.0342 26.4847C19.032 27.0603 19.2675 27.6136 19.6875 28.0069L19.7409 28.0581C20.5386 28.8047 21.7786 28.8047 22.5742 28.0581C23.0253 27.6336 23.2653 27.0314 23.2253 26.4114L22.7298 18.7958C22.6942 18.2536 23.0409 17.7581 23.5631 17.6047C24.9898 17.1869 25.8542 15.7381 25.5386 14.2825V14.2869Z" fill="#6E3BFF"/>
<path d="M15.1182 3.55566C14.5782 3.55566 14.1404 3.99344 14.1404 4.53344V10.149C14.1404 10.6957 13.6982 11.1379 13.1515 11.1379C12.6049 11.1379 12.1627 10.6957 12.1627 10.149V4.53344C12.1627 3.99344 11.7249 3.55566 11.1849 3.55566H11.1582C10.6182 3.55566 10.1804 3.99344 10.1804 4.53344V10.149C10.1804 10.6957 9.73821 11.1379 9.19155 11.1379C8.64488 11.1379 8.20266 10.6957 8.20266 10.149V4.53344C8.20266 3.99344 7.76488 3.55566 7.22488 3.55566H7.19821C6.66043 3.55566 6.22266 3.99344 6.22266 4.53344V11.8779C6.22266 14.0401 7.24266 16.0757 8.97599 17.369L9.14488 17.4957C9.46043 17.7312 9.63377 18.109 9.60932 18.5023L9.09821 26.349C9.06043 26.9334 9.23821 27.5223 9.63377 27.9534C10.4582 28.849 11.8627 28.849 12.6871 27.9534C13.0827 27.5223 13.2604 26.9334 13.2227 26.349L12.7115 18.5023C12.6849 18.109 12.8604 17.7312 13.176 17.4957L13.3449 17.369C15.0782 16.0757 16.0982 14.0401 16.0982 11.8779V4.53344C16.0982 3.99344 15.6604 3.55566 15.1204 3.55566H15.1182Z" fill="#6E3BFF"/>
</g>
<defs>
<clipPath id="clip0_282_907">
<rect width="32" height="32" fill="#606060"/>
</clipPath>
</defs>
</svg>
