<svg width="24" height="25" viewBox="0 0 24 25" fill="none" xmlns="http://www.w3.org/2000/svg">
<g clip-path="url(#clip0_275_9583)">
<path d="M19.1537 11.2153L18.2837 6.69367C18.0454 5.277 17.1287 3.89867 15.8287 3.28533C15.1471 2.96367 14.3637 3.45867 14.3604 4.212L14.2754 20.3637C14.2737 20.7953 14.4504 21.2103 14.7654 21.5053L14.8054 21.5437C15.4037 22.1037 16.3337 22.1037 16.9304 21.5437C17.2687 21.2253 17.4487 20.7737 17.4187 20.3087L17.0471 14.597C17.0204 14.1903 17.2804 13.8187 17.6721 13.7037C18.7421 13.3903 19.3904 12.3037 19.1537 11.212V11.2153Z" fill="#606060"/>
<path d="M11.3387 3.16699C10.9337 3.16699 10.6053 3.49533 10.6053 3.90033V8.11199C10.6053 8.52199 10.2737 8.85366 9.86366 8.85366C9.45366 8.85366 9.12199 8.52199 9.12199 8.11199V3.90033C9.12199 3.49533 8.79366 3.16699 8.38866 3.16699H8.36866C7.96366 3.16699 7.63533 3.49533 7.63533 3.90033V8.11199C7.63533 8.52199 7.30366 8.85366 6.89366 8.85366C6.48366 8.85366 6.15199 8.52199 6.15199 8.11199V3.90033C6.15199 3.49533 5.82366 3.16699 5.41866 3.16699H5.39866C4.99533 3.16699 4.66699 3.49533 4.66699 3.90033V9.40866C4.66699 11.0303 5.43199 12.557 6.73199 13.527L6.85866 13.622C7.09533 13.7987 7.22533 14.082 7.20699 14.377L6.82366 20.262C6.79533 20.7003 6.92866 21.142 7.22533 21.4653C7.84366 22.137 8.89699 22.137 9.51533 21.4653C9.81199 21.142 9.94533 20.7003 9.91699 20.262L9.53366 14.377C9.51366 14.082 9.64533 13.7987 9.88199 13.622L10.0087 13.527C11.3087 12.557 12.0737 11.0303 12.0737 9.40866V3.90033C12.0737 3.49533 11.7453 3.16699 11.3403 3.16699H11.3387Z" fill="#606060"/>
</g>
<defs>
<clipPath id="clip0_275_9583">
<rect width="24" height="24" fill="white" transform="translate(0 0.5)"/>
</clipPath>
</defs>
</svg>
