<svg width="24" height="24" viewBox="0 0 24 24" fill="none" xmlns="http://www.w3.org/2000/svg">
<path d="M20.0175 9.95995C19.6463 6.1687 16.6163 3.0937 12.8325 2.67745C7.9125 2.1337 3.75 5.96995 3.75 10.7775C3.75 10.92 3.75 11.0587 3.76125 11.1975C3.85875 13.095 4.7025 14.88 6.01875 16.2487L10.905 21.3375C11.4488 21.9037 12.36 21.9037 12.9037 21.3375L17.7938 16.245C19.0725 14.9137 19.9125 13.1925 20.04 11.3475C20.07 10.8937 20.0662 10.4287 20.0212 9.9562L20.0175 9.95995ZM11.9025 12.195C10.6613 12.195 9.6525 11.1862 9.6525 9.94495C9.6525 8.7037 10.6613 7.69495 11.9025 7.69495C13.1438 7.69495 14.1525 8.7037 14.1525 9.94495C14.1525 11.1862 13.1438 12.195 11.9025 12.195Z" fill="#606060"/>
</svg>
