<svg width="20" height="21" viewBox="0 0 20 21" fill="none" xmlns="http://www.w3.org/2000/svg">
<path d="M16.6813 8.80012C16.3719 5.64075 13.8469 3.07825 10.6937 2.73137C6.59375 2.27825 3.125 5.47512 3.125 9.48137C3.125 9.60012 3.125 9.71575 3.13437 9.83137C3.21562 11.4126 3.91875 12.9001 5.01562 14.0407L9.0875 18.2814C9.54063 18.7532 10.3 18.7532 10.7531 18.2814L14.8281 14.0376C15.8938 12.9282 16.5938 11.4939 16.7 9.95637C16.725 9.57825 16.7219 9.19075 16.6844 8.797L16.6813 8.80012ZM9.91875 10.6626C8.88438 10.6626 8.04375 9.822 8.04375 8.78762C8.04375 7.75325 8.88438 6.91262 9.91875 6.91262C10.9531 6.91262 11.7937 7.75325 11.7937 8.78762C11.7937 9.822 10.9531 10.6626 9.91875 10.6626Z" fill="#C1C1C1"/>
</svg>
