<svg width="24" height="24" viewBox="0 0 24 24" fill="none" xmlns="http://www.w3.org/2000/svg">
<path d="M14.3967 12.6357L13.5679 13.4644C13.0467 13.9857 12.2029 13.9857 11.6854 13.4644L10.8379 12.6169L9.9904 11.7694C9.46915 11.2482 9.46915 10.4044 9.9904 9.8869L10.8192 9.05815C11.2617 8.61565 11.2617 7.89565 10.8192 7.45315L7.81915 4.4569C7.4329 4.07065 6.8254 4.0144 6.3754 4.32565L4.9954 5.27065C4.2004 5.8144 3.9079 6.8494 4.29415 7.73065C6.53665 12.8344 10.6129 16.9107 15.7167 19.1532C16.5979 19.5394 17.6329 19.2469 18.1804 18.4519L19.1254 17.0719C19.4329 16.6219 19.3767 16.0144 18.9942 15.6282L15.9979 12.6319C15.5554 12.1894 14.8354 12.1894 14.3929 12.6319L14.3967 12.6357Z" fill="#606060"/>
</svg>
