<svg width="20" height="20" viewBox="0 0 20 20" fill="none" xmlns="http://www.w3.org/2000/svg">
<path d="M15.0512 7.98228C14.799 5.40672 12.7406 3.31774 10.1701 3.03497C6.82776 2.66558 4 5.2717 4 8.53764C4 8.63444 4 8.7287 4.00764 8.82296C4.07388 10.112 4.64707 11.3246 5.54126 12.2545L8.86069 15.7115C9.23008 16.0962 9.84913 16.0962 10.2185 15.7115L13.5405 12.2519C14.4092 11.3476 14.9799 10.1782 15.0665 8.92486C15.0869 8.61661 15.0843 8.30072 15.0537 7.97973L15.0512 7.98228ZM9.53834 9.50061C8.6951 9.50061 8.00982 8.81532 8.00982 7.97209C8.00982 7.12885 8.6951 6.44357 9.53834 6.44357C10.3816 6.44357 11.0669 7.12885 11.0669 7.97209C11.0669 8.81532 10.3816 9.50061 9.53834 9.50061Z" fill="#C1C1C1"/>
</svg>
