<svg width="24" height="24" viewBox="0 0 24 24" fill="none" xmlns="http://www.w3.org/2000/svg">
<g clip-path="url(#clip0_226_1675)">
<path d="M19.1537 10.7148L18.2837 6.19318C18.0454 4.77651 17.1287 3.39818 15.8287 2.78485C15.1471 2.46318 14.3637 2.95818 14.3604 3.71151L14.2754 19.8632C14.2737 20.2948 14.4504 20.7098 14.7654 21.0048L14.8054 21.0432C15.4037 21.6032 16.3337 21.6032 16.9304 21.0432C17.2687 20.7248 17.4487 20.2732 17.4187 19.8082L17.0471 14.0965C17.0204 13.6898 17.2804 13.3182 17.6721 13.2032C18.7421 12.8898 19.3904 11.8032 19.1537 10.7115V10.7148Z" fill="white"/>
<path d="M11.3387 2.6665C10.9337 2.6665 10.6053 2.99484 10.6053 3.39984V7.6115C10.6053 8.0215 10.2737 8.35317 9.86366 8.35317C9.45366 8.35317 9.12199 8.0215 9.12199 7.6115V3.39984C9.12199 2.99484 8.79366 2.6665 8.38866 2.6665H8.36866C7.96366 2.6665 7.63533 2.99484 7.63533 3.39984V7.6115C7.63533 8.0215 7.30366 8.35317 6.89366 8.35317C6.48366 8.35317 6.15199 8.0215 6.15199 7.6115V3.39984C6.15199 2.99484 5.82366 2.6665 5.41866 2.6665H5.39866C4.99533 2.6665 4.66699 2.99484 4.66699 3.39984V8.90817C4.66699 10.5298 5.43199 12.0565 6.73199 13.0265L6.85866 13.1215C7.09533 13.2982 7.22533 13.5815 7.20699 13.8765L6.82366 19.7615C6.79533 20.1998 6.92866 20.6415 7.22533 20.9648C7.84366 21.6365 8.89699 21.6365 9.51533 20.9648C9.81199 20.6415 9.94533 20.1998 9.91699 19.7615L9.53366 13.8765C9.51366 13.5815 9.64533 13.2982 9.88199 13.1215L10.0087 13.0265C11.3087 12.0565 12.0737 10.5298 12.0737 8.90817V3.39984C12.0737 2.99484 11.7453 2.6665 11.3403 2.6665H11.3387Z" fill="white"/>
</g>
<defs>
<clipPath id="clip0_226_1675">
<rect width="24" height="24" fill="white"/>
</clipPath>
</defs>
</svg>
