<svg width="24" height="24" viewBox="0 0 24 24" fill="none" xmlns="http://www.w3.org/2000/svg">
<path d="M18.1168 9.54317L17.6034 4.66484C17.5434 4.0965 17.0651 3.6665 16.4934 3.6665H7.4901C6.9201 3.6665 6.4401 4.09817 6.3801 4.66484L5.86844 9.54317C5.51177 12.9332 7.96677 15.9148 11.2634 16.3015V18.2448L8.92177 18.7715C8.55177 18.8548 8.2901 19.1832 8.2901 19.5615C8.2901 20.0098 8.65344 20.3715 9.1001 20.3715H14.8851C15.3334 20.3715 15.6951 20.0082 15.6951 19.5615C15.6951 19.1832 15.4318 18.8548 15.0634 18.7715L12.7218 18.2448V16.3015C16.0184 15.9132 18.4734 12.9332 18.1168 9.54317Z" fill="white"/>
</svg>
