<svg width="24" height="24" viewBox="0 0 24 24" fill="none" xmlns="http://www.w3.org/2000/svg">
<path d="M11.9025 4.125C7.39875 4.125 3.75 7.77375 3.75 12.2775C3.75 16.7812 7.39875 20.43 11.9025 20.43C16.4062 20.43 20.055 16.7812 20.055 12.2775C20.055 7.77375 16.4062 4.125 11.9025 4.125ZM14.8238 14.5087C14.7113 14.655 14.5463 14.73 14.3775 14.73C14.2575 14.73 14.1375 14.6925 14.0363 14.6137L11.5612 12.7238C11.4225 12.6188 11.34 12.4538 11.34 12.2775V8.11125C11.34 7.8 11.5912 7.54875 11.9025 7.54875C12.2137 7.54875 12.465 7.8 12.465 8.11125V12L14.7188 13.7213C14.9663 13.9088 15.015 14.2612 14.8238 14.5087Z" fill="#606060"/>
</svg>
