<svg width="24" height="24" viewBox="0 0 24 24" fill="none" xmlns="http://www.w3.org/2000/svg">
<path d="M16.8417 18.3301H4.23C3.82667 18.3301 3.5 18.6567 3.5 19.0601C3.5 19.4634 3.82667 19.7901 4.23 19.7901H16.8433C17.2467 19.7901 17.5733 19.4634 17.5733 19.0601C17.5733 18.6567 17.2467 18.3301 16.8433 18.3301H16.8417Z" fill="white"/>
<path d="M17.317 5.49183H16.6787L16.687 5.17683C16.6987 4.71516 16.3287 4.3335 15.8654 4.3335H4.87369C4.41036 4.3335 4.04036 4.71516 4.05203 5.17683L4.20536 11.0085C4.29369 14.3502 7.02703 17.0135 10.3704 17.0135C13.4687 17.0135 16.042 14.7252 16.472 11.7302H17.3187C19.042 11.7302 20.4387 10.3335 20.4387 8.61016C20.4387 6.88683 19.042 5.49016 17.3187 5.49016L17.317 5.49183ZM17.317 10.2202H16.5537L16.6387 7.0035H17.317C18.2037 7.0035 18.9254 7.72516 18.9254 8.61183C18.9254 9.4985 18.2037 10.2202 17.317 10.2202Z" fill="white"/>
</svg>
