<svg width="48" height="48" viewBox="0 0 48 48" fill="none" xmlns="http://www.w3.org/2000/svg">
<circle cx="24" cy="24" r="24" fill="#6E3BFF"/>
<path d="M32.6662 20.5196L31.939 13.6086C31.854 12.8035 31.1764 12.1943 30.3665 12.1943H17.6118C16.8043 12.1943 16.1243 12.8059 16.0393 13.6086L15.3144 20.5196C14.8092 25.3221 18.2871 29.5461 22.9574 30.0939V32.847L19.64 33.5931C19.1158 33.7111 18.7451 34.1763 18.7451 34.7123C18.7451 35.3474 19.2599 35.8598 19.8926 35.8598H28.088C28.7232 35.8598 29.2355 35.345 29.2355 34.7123C29.2355 34.1763 28.8625 33.7111 28.3407 33.5931L25.0233 32.847V30.0939C29.6936 29.5438 33.1715 25.3221 32.6662 20.5196Z" fill="white"/>
</svg>
