<svg width="48" height="48" viewBox="0 0 48 48" fill="none" xmlns="http://www.w3.org/2000/svg">
<circle cx="24" cy="24" r="24" fill="#6E3BFF"/>
<path d="M31.9222 32.9678H14.0557C13.4843 32.9678 13.0215 33.4306 13.0215 34.0019C13.0215 34.5733 13.4843 35.0361 14.0557 35.0361H31.9245C32.4959 35.0361 32.9587 34.5733 32.9587 34.0019C32.9587 33.4306 32.4959 32.9678 31.9245 32.9678H31.9222Z" fill="white"/>
<path d="M32.5952 14.7796H31.6909L31.7027 14.3334C31.7192 13.6794 31.1951 13.1387 30.5387 13.1387H14.9671C14.3108 13.1387 13.7866 13.6794 13.8031 14.3334L14.0203 22.5949C14.1455 27.329 18.0177 31.102 22.7541 31.102C27.1434 31.102 30.7889 27.8602 31.3981 23.6173H32.5976C35.039 23.6173 37.0176 21.6387 37.0176 19.1973C37.0176 16.7559 35.039 14.7773 32.5976 14.7773L32.5952 14.7796ZM32.5952 21.4781H31.5138L31.6342 16.9212H32.5952C33.8513 16.9212 34.8737 17.9435 34.8737 19.1996C34.8737 20.4558 33.8513 21.4781 32.5952 21.4781Z" fill="white"/>
</svg>
