<svg width="48" height="48" viewBox="0 0 48 48" fill="none" xmlns="http://www.w3.org/2000/svg">
<circle cx="24" cy="24" r="24" fill="#6E3BFF"/>
<g clip-path="url(#clip0_343_3181)">
<path d="M34.1336 22.1792L32.9011 15.7735C32.5635 13.7666 31.2649 11.814 29.4232 10.9451C28.4575 10.4894 27.3478 11.1906 27.3431 12.2579L27.2227 35.1394C27.2203 35.7509 27.4706 36.3388 27.9168 36.7567L27.9735 36.811C28.8211 37.6044 30.1386 37.6044 30.9839 36.811C31.4632 36.3601 31.7182 35.7202 31.6757 35.0615L31.1492 26.9699C31.1114 26.3938 31.4798 25.8673 32.0346 25.7044C33.5505 25.2605 34.4689 23.721 34.1336 22.1745V22.1792Z" fill="white"/>
<path d="M23.0629 10.7773C22.4891 10.7773 22.024 11.2425 22.024 11.8162V17.7828C22.024 18.3636 21.5541 18.8335 20.9733 18.8335C20.3924 18.8335 19.9226 18.3636 19.9226 17.7828V11.8162C19.9226 11.2425 19.4574 10.7773 18.8837 10.7773H18.8554C18.2816 10.7773 17.8165 11.2425 17.8165 11.8162V17.7828C17.8165 18.3636 17.3466 18.8335 16.7658 18.8335C16.1849 18.8335 15.7151 18.3636 15.7151 17.7828V11.8162C15.7151 11.2425 15.2499 10.7773 14.6762 10.7773H14.6479C14.0765 10.7773 13.6113 11.2425 13.6113 11.8162V19.6197C13.6113 21.9171 14.6951 24.0798 16.5367 25.454L16.7162 25.5886C17.0515 25.8389 17.2356 26.2403 17.2097 26.6582L16.6666 34.9953C16.6265 35.6162 16.8154 36.2419 17.2356 36.7C18.1116 37.6515 19.6038 37.6515 20.4798 36.7C20.9001 36.2419 21.089 35.6162 21.0488 34.9953L20.5058 26.6582C20.4774 26.2403 20.664 25.8389 20.9992 25.5886L21.1787 25.454C23.0204 24.0798 24.1041 21.9171 24.1041 19.6197V11.8162C24.1041 11.2425 23.639 10.7773 23.0652 10.7773H23.0629Z" fill="white"/>
</g>
<defs>
<clipPath id="clip0_343_3181">
<rect width="34" height="34" fill="white" transform="translate(7 7)"/>
</clipPath>
</defs>
</svg>
