<svg width="20" height="26" viewBox="0 0 20 26" fill="none" xmlns="http://www.w3.org/2000/svg">
<path d="M19.5386 11.2869L18.3786 5.25806C18.0609 3.36917 16.8386 1.53139 15.1053 0.713616C14.1964 0.284727 13.152 0.944727 13.1475 1.94917L13.0342 23.4847C13.032 24.0603 13.2675 24.6136 13.6875 25.0069L13.7409 25.0581C14.5386 25.8047 15.7786 25.8047 16.5742 25.0581C17.0253 24.6336 17.2653 24.0314 17.2253 23.4114L16.7298 15.7958C16.6942 15.2536 17.0409 14.7581 17.5631 14.6047C18.9898 14.1869 19.8542 12.7381 19.5386 11.2825V11.2869Z" fill="#6E3BFF"/>
<path d="M9.11821 0.555664C8.57821 0.555664 8.14043 0.993442 8.14043 1.53344V7.149C8.14043 7.69566 7.69821 8.13789 7.15155 8.13789C6.60488 8.13789 6.16266 7.69566 6.16266 7.149V1.53344C6.16266 0.993442 5.72488 0.555664 5.18488 0.555664H5.15821C4.61821 0.555664 4.18043 0.993442 4.18043 1.53344V7.149C4.18043 7.69566 3.73821 8.13789 3.19155 8.13789C2.64488 8.13789 2.20266 7.69566 2.20266 7.149V1.53344C2.20266 0.993442 1.76488 0.555664 1.22488 0.555664H1.19821C0.660434 0.555664 0.222656 0.993442 0.222656 1.53344V8.87789C0.222656 11.0401 1.24266 13.0757 2.97599 14.369L3.14488 14.4957C3.46043 14.7312 3.63377 15.109 3.60932 15.5023L3.09821 23.349C3.06043 23.9334 3.23821 24.5223 3.63377 24.9534C4.45821 25.849 5.86266 25.849 6.6871 24.9534C7.08266 24.5223 7.26043 23.9334 7.22266 23.349L6.71155 15.5023C6.68488 15.109 6.86043 14.7312 7.17599 14.4957L7.34488 14.369C9.07821 13.0757 10.0982 11.0401 10.0982 8.87789V1.53344C10.0982 0.993442 9.66043 0.555664 9.12043 0.555664H9.11821Z" fill="#6E3BFF"/>
</svg>
