<svg width="16" height="20" viewBox="0 0 16 20" fill="none" xmlns="http://www.w3.org/2000/svg">
<path d="M15.1537 8.71485L14.2837 4.19318C14.0454 2.77651 13.1287 1.39818 11.8287 0.784846C11.1471 0.463179 10.3637 0.958179 10.3604 1.71151L10.2754 17.8632C10.2737 18.2948 10.4504 18.7098 10.7654 19.0048L10.8054 19.0432C11.4037 19.6032 12.3337 19.6032 12.9304 19.0432C13.2687 18.7248 13.4487 18.2732 13.4187 17.8082L13.0471 12.0965C13.0204 11.6898 13.2804 11.3182 13.6721 11.2032C14.7421 10.8898 15.3904 9.80318 15.1537 8.71151V8.71485Z" fill="white"/>
<path d="M7.33866 0.666504C6.93366 0.666504 6.60533 0.994837 6.60533 1.39984V5.6115C6.60533 6.0215 6.27366 6.35317 5.86366 6.35317C5.45366 6.35317 5.12199 6.0215 5.12199 5.6115V1.39984C5.12199 0.994837 4.79366 0.666504 4.38866 0.666504H4.36866C3.96366 0.666504 3.63533 0.994837 3.63533 1.39984V5.6115C3.63533 6.0215 3.30366 6.35317 2.89366 6.35317C2.48366 6.35317 2.15199 6.0215 2.15199 5.6115V1.39984C2.15199 0.994837 1.82366 0.666504 1.41866 0.666504H1.39866C0.995325 0.666504 0.666992 0.994837 0.666992 1.39984V6.90817C0.666992 8.52984 1.43199 10.0565 2.73199 11.0265L2.85866 11.1215C3.09533 11.2982 3.22533 11.5815 3.20699 11.8765L2.82366 17.7615C2.79533 18.1998 2.92866 18.6415 3.22533 18.9648C3.84366 19.6365 4.89699 19.6365 5.51533 18.9648C5.81199 18.6415 5.94533 18.1998 5.91699 17.7615L5.53366 11.8765C5.51366 11.5815 5.64533 11.2982 5.88199 11.1215L6.00866 11.0265C7.30866 10.0565 8.07366 8.52984 8.07366 6.90817V1.39984C8.07366 0.994837 7.74533 0.666504 7.34033 0.666504H7.33866Z" fill="white"/>
</svg>
