<svg width="20" height="20" viewBox="0 0 20 20" fill="none" xmlns="http://www.w3.org/2000/svg">
<path d="M13.287 3.2071C13.6776 2.81658 14.3107 2.81658 14.7013 3.2071L16.7927 5.29845C17.1832 5.68897 17.1832 6.32213 16.7927 6.71265L15.4024 8.1029C15.0119 8.49342 14.3787 8.49342 13.9882 8.1029L11.8967 6.01154C11.5062 5.62102 11.5062 4.98786 11.8967 4.59734L13.287 3.2071Z" fill="#6E3BFF"/>
<path d="M9.48917 7.00495C9.8797 6.61443 10.5129 6.61443 10.9034 7.00495L12.9949 9.09637C13.3854 9.48689 13.3854 10.12 12.9949 10.5106L6.65813 16.8472C6.42546 17.0798 6.12914 17.2384 5.80651 17.3029L3.3899 17.7863C2.69014 17.9263 2.07318 17.3093 2.21318 16.6096L2.69663 14.1931C2.76117 13.8705 2.91976 13.5742 3.15241 13.3416L9.48917 7.00495Z" fill="#6E3BFF"/>
</svg>
