<svg width="230" height="95" viewBox="0 0 230 95" fill="none" xmlns="http://www.w3.org/2000/svg">
<path d="M224.984 31.5C224.984 30.112 224.871 28.7313 224.555 27.4599C225.052 28.5802 225.384 30.2111 225.384 32.5C225.384 35.4327 224.457 37.9698 222.466 40.1954C224.134 37.6518 224.984 34.7323 224.984 31.5ZM207.81 24.6806C209.024 23.7655 210.452 23.1164 212.145 22.7756C211.476 23.1906 210.848 23.6941 210.263 24.2787L210.236 24.3059L210.209 24.3337C208.632 25.9943 207.384 28.0654 206.411 30.4552C205.449 32.7526 204.729 35.2972 204.232 38.07L204.226 38.101L204.221 38.1321C203.798 40.8141 203.584 43.4706 203.584 46.1V47.3169L203.403 47.3365L203.584 49.1497V49.6006L203.629 49.5937L203.699 50.2985C203.982 53.1217 204.49 55.5919 205.299 57.6142L205.318 57.6615L205.338 57.7082C206.18 59.622 207.236 61.2947 208.563 62.6213L208.6 62.6579L208.637 62.6932C209.954 63.9221 211.475 64.8221 213.181 65.3607L213.268 65.3883L213.357 65.4104C214.932 65.8044 216.544 66 218.184 66C219.949 66 221.659 65.7837 223.303 65.3433C223.262 65.3733 223.22 65.4031 223.177 65.433C222.234 66.0756 221.059 66.6115 219.604 67.0032L219.59 67.0071L219.575 67.0111C218.192 67.3985 216.699 67.6 215.084 67.6C213.19 67.6 211.273 67.2689 209.32 66.5841C207.485 65.8767 205.782 64.7884 204.207 63.2787C202.752 61.7584 201.493 59.7342 200.483 57.1188C199.519 54.6247 198.984 51.4471 198.984 47.5C198.984 44.9197 199.26 42.0796 199.83 38.9712C200.441 35.9863 201.411 33.2391 202.729 30.7168C204.07 28.2756 205.764 26.2756 207.81 24.6806Z" stroke="white" stroke-width="6"/>
<path d="M180.552 8.24924V20V20.5V23V23.5V54C180.552 54.8791 180.588 55.8774 180.658 56.9871L180.658 56.9995C180.739 58.2041 180.941 59.3805 181.267 60.5242L181.294 60.6175L181.327 60.709C181.778 61.9718 182.434 63.1205 183.322 64.1069L183.428 64.2242L183.545 64.3299C184.896 65.5462 186.58 66 188.252 66C189.255 66 190.204 65.8235 191.097 65.5021C190.02 66.4464 189.104 66.9036 188.357 67.0816L188.273 67.1016L188.19 67.1265C187.075 67.461 186.136 67.6 185.352 67.6C183.318 67.6 181.917 67.235 180.968 66.7107C179.823 66.0058 178.992 65.1723 178.403 64.2209C177.732 63.1379 177.262 61.9453 176.996 60.6222C176.698 59.0686 176.552 57.5622 176.552 56.1V23.5V23V20.5V20V8.80924L180.552 8.24924Z" stroke="white" stroke-width="6"/>
<path d="M156.919 8.24924V20V20.5V23V23.5V54C156.919 54.8791 156.956 55.8774 157.025 56.9871L157.026 56.9995C157.106 58.2041 157.308 59.3805 157.634 60.5242L157.661 60.6175L157.694 60.709C158.145 61.9718 158.801 63.1205 159.689 64.1069L159.795 64.2242L159.912 64.3299C161.264 65.5462 162.947 66 164.619 66C165.623 66 166.571 65.8235 167.464 65.5021C166.387 66.4464 165.471 66.9036 164.724 67.0816L164.64 67.1016L164.557 67.1265C163.442 67.461 162.503 67.6 161.719 67.6C159.686 67.6 158.284 67.235 157.335 66.7107C156.19 66.0058 155.359 65.1723 154.77 64.2209C154.099 63.1379 153.629 61.9453 153.363 60.6222C153.065 59.0686 152.919 57.5622 152.919 56.1V23.5V23V20.5V20V8.80924L156.919 8.24924Z" stroke="white" stroke-width="6"/>
<path d="M140.902 31.5C140.902 30.112 140.789 28.7313 140.472 27.4599C140.97 28.5802 141.302 30.2111 141.302 32.5C141.302 35.4327 140.375 37.9698 138.384 40.1954C140.052 37.6518 140.902 34.7323 140.902 31.5ZM123.728 24.6806C124.942 23.7655 126.37 23.1164 128.063 22.7756C127.394 23.1906 126.766 23.6941 126.181 24.2787L126.154 24.3059L126.127 24.3337C124.55 25.9943 123.302 28.0654 122.329 30.4552C121.367 32.7526 120.647 35.2972 120.15 38.07L120.144 38.101L120.139 38.1321C119.716 40.8141 119.502 43.4706 119.502 46.1V47.3169L119.321 47.3365L119.502 49.1496V49.6006L119.547 49.5937L119.617 50.2985C119.9 53.1217 120.408 55.5919 121.217 57.6142L121.236 57.6615L121.256 57.7082C122.098 59.622 123.154 61.2947 124.481 62.6213L124.518 62.6579L124.555 62.6932C125.872 63.9221 127.393 64.8221 129.099 65.3607L129.186 65.3883L129.275 65.4104C130.85 65.8044 132.462 66 134.102 66C135.306 66 136.487 65.8985 137.644 65.6967C137.186 65.9227 136.721 66.134 136.248 66.3308C134.204 67.1825 132.129 67.6 130.002 67.6C128.025 67.6 126.11 67.2632 124.242 66.5858C122.592 65.9645 121.088 64.9509 119.722 63.4818C118.376 61.9679 117.194 59.9384 116.232 57.3036C115.376 54.7789 114.902 51.5372 114.902 47.5C114.902 44.9197 115.178 42.0796 115.748 38.9712C116.359 35.9863 117.329 33.2391 118.647 30.7168C119.988 28.2756 121.682 26.2756 123.728 24.6806Z" stroke="white" stroke-width="6"/>
<path d="M98.5205 3.44926V54C98.5205 54.7574 98.558 55.6626 98.6272 56.6996C98.7072 57.8995 98.9067 59.0915 99.2218 60.273L99.2537 60.3925L99.2953 60.509C99.7388 61.7509 100.371 62.8884 101.199 63.8997L101.243 63.9544L101.291 64.0069C102.567 65.4255 104.279 66 106.021 66C106.801 66 107.531 65.8804 108.212 65.6613C107.297 66.5304 106.519 66.933 105.893 67.0896L105.825 67.1065L105.758 67.1265C104.625 67.4667 103.722 67.6 103.021 67.6C101.064 67.6 99.7516 67.2392 98.8867 66.7406C97.8013 66.0415 96.9787 65.2022 96.3713 64.2209C95.7104 63.1533 95.2359 61.934 94.9665 60.5335C94.6655 58.9679 94.5205 57.4916 94.5205 56.1V4.00926L98.5205 3.44926Z" stroke="white" stroke-width="6"/>
<path d="M58.5854 67.6C56.9986 67.6 55.3371 67.285 53.5845 66.6085C52.0714 66.0005 50.6158 64.9947 49.226 63.5042C47.9262 61.9753 46.7721 59.9632 45.8117 57.3932C44.9565 54.8662 44.4854 51.6594 44.4854 47.7C44.4854 44.8594 44.7932 41.8665 45.4214 38.7167C46.0971 35.6574 47.1293 32.9144 48.5018 30.4677C49.8401 28.082 51.5343 26.1383 53.5854 24.6C55.398 23.2405 57.6439 22.5 60.4854 22.5C60.5026 22.5 60.52 22.5001 60.5374 22.5002C58.9905 22.9869 57.5796 23.8263 56.3374 25.0076C54.457 26.7318 53.0012 28.8934 51.9302 31.4128C50.8944 33.7839 50.1342 36.375 49.6325 39.17L49.627 39.201L49.6221 39.2321C49.2 41.9052 48.9854 44.4955 48.9854 47C48.9854 52.8426 49.7376 57.6666 51.7375 60.8838L51.7527 60.9083L51.7685 60.9326C53.92 64.2496 57.1327 66 61.0854 66C62.6402 66 64.1212 65.5809 65.4971 64.8471L65.5141 64.838C65.2793 65.0582 65.034 65.2736 64.7782 65.4842L64.7612 65.4982L64.7444 65.5125C63.1466 66.8682 61.1574 67.6 58.5854 67.6ZM74.521 60.482L72.7848 52.235C72.7852 52.19 72.7854 52.145 72.7854 52.1V29.3V28.6725L72.5338 28.0975C72.0782 27.0562 71.4574 26.1124 70.6995 25.2627L72.7854 24.8V23H76.7854V54C76.7854 54.7573 76.8229 55.6625 76.892 56.6996C76.972 57.8995 77.1716 59.0915 77.4867 60.273L77.5185 60.3925L77.5601 60.509C78.0036 61.7508 78.636 62.8884 79.4635 63.8997L79.5082 63.9544L79.5555 64.0069C80.8322 65.4255 82.544 66 84.2854 66C85.0658 66 85.7961 65.8804 86.4768 65.6613C85.562 66.5304 84.7841 66.933 84.1577 67.0896L84.0901 67.1065L84.0233 67.1265C82.8895 67.4667 81.9867 67.6 81.2854 67.6C80.1152 67.6 79.2447 67.3999 78.5936 67.0999C77.8816 66.7393 77.2666 66.2789 76.7337 65.7123C76.2354 65.1126 75.8069 64.4017 75.4594 63.5577C75.0663 62.603 74.752 61.5793 74.521 60.482Z" stroke="white" stroke-width="6"/>
<path d="M7.7001 90.152L3.6001 91.1669V19.3H7.7001V24V30.0644V30.8V31.5136V57.099V60.8V61.8293V65.8V90.152ZM23.6325 64.8947C25.2778 63.5092 26.5815 61.7174 27.5934 59.6216C28.6675 57.4678 29.4413 55.0351 29.9478 52.3577C30.453 49.6875 30.7001 46.866 30.7001 43.9C30.7001 40.2904 30.3582 37.1311 29.5929 34.5037C28.9394 31.9797 28.018 29.7679 26.7214 28.0285C25.5225 26.3574 24.0627 24.9954 22.2833 24.1877C20.7977 23.4533 19.2344 23.0053 17.6287 23C18.6291 22.677 19.7773 22.5 21.1001 22.5C22.9886 22.5 24.6933 22.9007 26.2585 23.6833C27.7622 24.4351 29.1335 25.617 30.3536 27.3362L30.3856 27.3814L30.4193 27.4253C31.6609 29.0448 32.7163 31.235 33.5087 34.0997L33.5109 34.1078L33.5132 34.1159C34.2844 36.8447 34.7001 40.2222 34.7001 44.3C34.7001 52.3128 33.1848 58.0999 30.5207 62.0111C27.8995 65.8591 24.6277 67.6 20.5001 67.6C19.2892 67.6 18.26 67.4553 17.3845 67.1997C19.72 67.1813 21.8427 66.4019 23.6325 64.8947Z" stroke="white" stroke-width="6"/>
</svg>
