<svg width="40" height="40" viewBox="0 0 40 40" fill="none" xmlns="http://www.w3.org/2000/svg">
<g clip-path="url(#clip0_205_3070)">
<path d="M31.9216 17.8583L30.4716 10.3222C30.0744 7.9611 28.5466 5.66388 26.3799 4.64165C25.2438 4.10554 23.9383 4.93054 23.9327 6.1861L23.791 33.1055C23.7883 33.825 24.0827 34.5167 24.6077 35.0083L24.6744 35.0722C25.6716 36.0055 27.2216 36.0055 28.216 35.0722C28.7799 34.5417 29.0799 33.7889 29.0299 33.0139L28.4105 23.4944C28.366 22.8167 28.7994 22.1972 29.4521 22.0055C31.2355 21.4833 32.316 19.6722 31.9216 17.8528V17.8583Z" fill="#606060"/>
<path d="M18.8968 4.44446C18.2218 4.44446 17.6746 4.99168 17.6746 5.66668V12.6861C17.6746 13.3695 17.1218 13.9222 16.4385 13.9222C15.7551 13.9222 15.2023 13.3695 15.2023 12.6861V5.66668C15.2023 4.99168 14.6551 4.44446 13.9801 4.44446H13.9468C13.2718 4.44446 12.7246 4.99168 12.7246 5.66668V12.6861C12.7246 13.3695 12.1718 13.9222 11.4885 13.9222C10.8051 13.9222 10.2523 13.3695 10.2523 12.6861V5.66668C10.2523 4.99168 9.70512 4.44446 9.03012 4.44446H8.99679C8.32457 4.44446 7.77734 4.99168 7.77734 5.66668V14.8472C7.77734 17.55 9.05234 20.0945 11.219 21.7111L11.4301 21.8695C11.8246 22.1639 12.0412 22.6361 12.0107 23.1278L11.3718 32.9361C11.3246 33.6667 11.5468 34.4028 12.0412 34.9417C13.0718 36.0611 14.8273 36.0611 15.8579 34.9417C16.3523 34.4028 16.5746 33.6667 16.5273 32.9361L15.8885 23.1278C15.8551 22.6361 16.0746 22.1639 16.469 21.8695L16.6801 21.7111C18.8468 20.0945 20.1218 17.55 20.1218 14.8472V5.66668C20.1218 4.99168 19.5746 4.44446 18.8996 4.44446H18.8968Z" fill="#606060"/>
</g>
<defs>
<clipPath id="clip0_205_3070">
<rect width="40" height="40" fill="white"/>
</clipPath>
</defs>
</svg>
