<svg width="25" height="32" viewBox="0 0 25 32" fill="none" xmlns="http://www.w3.org/2000/svg">
<path d="M24.9216 13.8583L23.4716 6.32221C23.0744 3.9611 21.5466 1.66388 19.3799 0.641654C18.2438 0.105543 16.9383 0.930543 16.9327 2.1861L16.791 29.1055C16.7883 29.825 17.0827 30.5167 17.6077 31.0083L17.6744 31.0722C18.6716 32.0055 20.2216 32.0055 21.216 31.0722C21.7799 30.5417 22.0799 29.7889 22.0299 29.0139L21.4105 19.4944C21.366 18.8167 21.7994 18.1972 22.4521 18.0055C24.2355 17.4833 25.316 15.6722 24.9216 13.8528V13.8583Z" fill="#606060"/>
<path d="M11.8968 0.444458C11.2218 0.444458 10.6746 0.99168 10.6746 1.66668V8.68612C10.6746 9.36946 10.1218 9.92223 9.43846 9.92223C8.75512 9.92223 8.20234 9.36946 8.20234 8.68612V1.66668C8.20234 0.99168 7.65512 0.444458 6.98012 0.444458H6.94679C6.27179 0.444458 5.72457 0.99168 5.72457 1.66668V8.68612C5.72457 9.36946 5.17179 9.92223 4.48846 9.92223C3.80512 9.92223 3.25234 9.36946 3.25234 8.68612V1.66668C3.25234 0.99168 2.70512 0.444458 2.03012 0.444458H1.99679C1.32457 0.444458 0.777344 0.99168 0.777344 1.66668V10.8472C0.777344 13.55 2.05234 16.0945 4.21901 17.7111L4.43012 17.8695C4.82457 18.1639 5.04123 18.6361 5.01068 19.1278L4.37179 28.9361C4.32457 29.6667 4.54679 30.4028 5.04123 30.9417C6.07179 32.0611 7.82734 32.0611 8.8579 30.9417C9.35234 30.4028 9.57457 29.6667 9.52734 28.9361L8.88846 19.1278C8.85512 18.6361 9.07457 18.1639 9.46901 17.8695L9.68012 17.7111C11.8468 16.0945 13.1218 13.55 13.1218 10.8472V1.66668C13.1218 0.99168 12.5746 0.444458 11.8996 0.444458H11.8968Z" fill="#606060"/>
</svg>
